<?xml version="1.0" encoding="utf-8"?>
<!-- Generator: Adobe Illustrator 22.1.0, SVG Export Plug-In . SVG Version: 6.00 Build 0)  -->
<svg version="1.1" id="Layer_1" xmlns="http://www.w3.org/2000/svg" xmlns:xlink="http://www.w3.org/1999/xlink" x="0px" y="0px"
	 viewBox="0 0 174.6 170.2" style="enable-background:new 0 0 174.6 170.2;" xml:space="preserve">
<title>Asset 3</title>
<g id="Layer_2_1_">
	<g id="Layer_2-2">
		<path d="M123.1,49.8c-0.1-0.2-31.2,52.7-31.2,52.7l-31-52.7L27.7,119H0L57.4,0l34.5,56.4L126.6,0l43.7,97.5
			c2.9,6.6,4.4,13.6,4.3,20.8c0,1,0,1.9-0.1,2.9c-0.7,27.4-23.1,49.1-50.5,49.1h-1.6c-3.1,0-6.2-0.4-9.2-1.1
			c-7-1.5-13.7-4.5-19.4-8.8l-1.6-1.2l12.4-20.1l1.9,1.6c7,5.8,16.5,7.8,25.2,5.2c8.4-2.9,15.1-9.5,18.1-17.9l0.1-0.3
			c0.8-2.3,1.3-4.6,1.5-7v-1c0-3.1-0.5-6.2-1.6-9.2v-0.2c-0.2-1-0.5-1.7-0.6-2.2c-0.2-0.7-0.4-1.1-0.4-1.2
			C148.6,106.1,123.1,49.8,123.1,49.8z"/>
	</g>
</g>
</svg>
